<?xml version="1.0" standalone="no"?>
<!DOCTYPE svg PUBLIC "-//W3C//DTD SVG 20010904//EN"
 "http://www.w3.org/TR/2001/REC-SVG-20010904/DTD/svg10.dtd">
<svg version="1.0" xmlns="http://www.w3.org/2000/svg"
 width="64.000000pt" height="64.000000pt" viewBox="0 0 64.000000 64.000000"
 preserveAspectRatio="xMidYMid meet">

<g transform="translate(0.000000,64.000000) scale(0.100000,-0.100000)"
fill="#000000" stroke="none">
<path d="M512 628 c-19 -19 -15 -75 8 -96 30 -28 31 -127 1 -177 l-22 -38 20
-20 c36 -36 58 5 77 148 4 32 14 55 25 63 20 14 26 52 9 52 -5 0 -10 -9 -10
-20 0 -11 -1 -20 -2 -20 -2 0 -23 6 -48 14 -42 12 -45 16 -48 50 l-3 36 50 0
c39 0 51 -4 51 -15 0 -8 5 -15 11 -15 6 0 9 10 7 23 -3 19 -10 22 -58 25 -34
2 -60 -2 -68 -10z m68 -154 c0 -19 -4 -34 -10 -34 -5 0 -10 18 -10 41 0 24 4
38 10 34 6 -3 10 -22 10 -41z m-15 -101 c-10 -53 -24 -78 -38 -64 -7 7 -6 16
5 28 9 10 20 30 23 46 11 40 18 33 10 -10z"/>
<path d="M270 409 c-57 -35 -257 -198 -264 -215 -3 -9 -6 -50 -6 -93 0 -79 9
-101 42 -101 24 0 23 16 -2 23 -11 3 -20 12 -20 20 0 14 224 201 254 213 7 3
16 -2 19 -10 10 -26 54 -18 92 15 38 33 57 33 34 0 -22 -31 -286 -241 -303
-241 -8 0 -18 -4 -21 -10 -4 -6 35 -10 111 -10 l116 0 49 36 c27 20 47 40 44
45 -3 4 -26 -7 -51 -26 -43 -33 -50 -35 -122 -35 -88 0 -89 -5 23 84 59 47 72
54 81 41 16 -21 61 -19 92 6 34 26 43 7 11 -27 -18 -19 -19 -24 -6 -24 23 0
47 39 47 76 0 17 6 37 14 43 18 15 26 45 15 62 -6 11 -14 11 -38 2 -27 -10
-30 -9 -33 11 -2 11 3 31 10 43 35 56 -21 70 -87 22 -24 -17 -45 -28 -49 -25
-3 4 2 22 11 42 28 57 1 71 -63 33z m43 -30 c-35 -61 -123 -107 -123 -64 0 20
100 94 128 95 10 0 8 -8 -5 -31z m137 -14 c0 -24 -94 -115 -118 -115 -33 0
-38 27 -11 50 20 17 119 80 127 80 1 0 2 -7 2 -15z m-156 -64 c-37 -33 -264
-211 -269 -211 -3 0 -5 22 -5 50 0 49 0 50 72 109 62 51 74 57 83 44 18 -24
64 -19 93 11 15 15 29 21 31 15 2 -6 -1 -14 -5 -18z m202 -58 c-18 -35 -76
-91 -96 -93 -54 -8 -53 17 3 62 79 65 118 77 93 31z"/>
</g>
</svg>
