<?xml version="1.0" standalone="no"?>
<!DOCTYPE svg PUBLIC "-//W3C//DTD SVG 20010904//EN"
 "http://www.w3.org/TR/2001/REC-SVG-20010904/DTD/svg10.dtd">
<svg version="1.0" xmlns="http://www.w3.org/2000/svg"
 width="128.000000pt" height="128.000000pt" viewBox="0 0 128.000000 128.000000"
 preserveAspectRatio="xMidYMid meet">

<g transform="translate(0.000000,128.000000) scale(0.100000,-0.100000)"
fill="#000000" stroke="none">
<path d="M727 1258 c-61 -63 -167 -198 -167 -214 0 -10 12 -28 27 -40 l26 -21
-29 -38 c-16 -22 -46 -54 -66 -73 -44 -39 -53 -63 -38 -92 9 -16 19 -20 43
-18 26 3 35 11 60 58 15 30 40 72 54 92 l26 38 32 -20 c18 -11 39 -18 46 -15
20 7 159 228 159 251 0 26 -7 34 -64 77 -57 43 -78 46 -109 15z m103 -35 c49
-37 58 -55 41 -82 -7 -11 -23 -4 -75 34 -36 26 -66 50 -66 54 0 12 23 31 37
31 8 0 36 -17 63 -37z m-46 -64 c48 -35 65 -54 58 -61 -13 -13 -142 78 -142
99 0 21 11 16 84 -38z m-25 -41 c33 -24 61 -47 61 -52 0 -20 -84 -137 -95
-132 -27 10 -145 102 -145 112 0 19 94 125 106 120 7 -3 39 -24 73 -48z m-119
-160 c-1 -19 -57 -84 -65 -76 -8 7 45 87 58 88 4 0 7 -6 7 -12z m-72 -97 c18
-11 -23 -81 -48 -81 -29 0 -31 27 -4 60 28 32 32 34 52 21z"/>
<path d="M338 753 c-50 -32 -53 -47 -53 -307 1 -224 2 -245 23 -300 12 -33 22
-79 22 -103 0 -23 5 -43 10 -43 18 0 11 89 -12 148 -19 51 -22 82 -26 283 -5
260 1 289 63 315 43 17 75 11 107 -23 21 -23 23 -35 26 -149 2 -68 8 -124 12
-124 5 0 11 48 12 107 3 104 4 108 29 122 24 13 29 13 53 -2 25 -17 26 -20 26
-127 0 -62 4 -111 10 -115 6 -4 10 25 10 79 0 124 29 169 85 132 24 -16 25
-20 25 -141 0 -77 4 -125 10 -125 6 0 10 43 10 110 0 106 1 110 25 126 23 15
27 15 50 0 24 -16 25 -19 25 -141 0 -143 18 -173 22 -39 2 70 6 89 20 98 13 8
23 8 35 0 27 -17 28 -145 3 -350 -23 -200 -22 -184 -11 -184 14 0 41 275 41
412 0 119 -1 128 -21 139 -12 6 -32 9 -45 6 -19 -3 -24 1 -26 21 -2 14 -15 34
-31 46 -23 17 -32 19 -57 9 -26 -10 -31 -8 -44 12 -18 28 -59 39 -87 24 -18
-9 -25 -7 -43 14 -28 34 -60 42 -95 24 -27 -14 -30 -13 -42 10 -27 50 -108 68
-161 36z"/>
<path d="M363 710 c-18 -7 -23 -17 -23 -47 0 -50 23 -83 58 -83 15 0 32 4 38
8 29 19 43 82 26 110 -11 17 -71 24 -99 12z m71 -16 c35 -13 11 -94 -27 -94
-32 0 -47 18 -47 56 0 39 30 55 74 38z"/>
<path d="M550 650 c0 -5 14 -10 30 -10 17 0 30 5 30 10 0 6 -13 10 -30 10 -16
0 -30 -4 -30 -10z"/>
<path d="M680 610 c0 -5 11 -10 25 -10 14 0 25 5 25 10 0 6 -11 10 -25 10 -14
0 -25 -4 -25 -10z"/>
<path d="M800 570 c0 -5 14 -10 30 -10 17 0 30 5 30 10 0 6 -13 10 -30 10 -16
0 -30 -4 -30 -10z"/>
<path d="M353 543 c-29 -11 -9 -18 51 -18 50 0 62 3 54 13 -10 12 -80 16 -105
5z"/>
<path d="M550 530 c0 -5 14 -10 30 -10 17 0 30 5 30 10 0 6 -13 10 -30 10 -16
0 -30 -4 -30 -10z"/>
<path d="M685 500 c3 -5 12 -10 20 -10 8 0 17 5 20 10 4 6 -5 10 -20 10 -15 0
-24 -4 -20 -10z"/>
<path d="M365 491 c-7 -12 -7 -12 35 -14 17 0 31 4 33 9 3 13 -60 17 -68 5z"/>
<path d="M925 490 c3 -5 10 -10 16 -10 5 0 9 5 9 10 0 6 -7 10 -16 10 -8 0
-12 -4 -9 -10z"/>
<path d="M800 460 c0 -5 14 -10 30 -10 17 0 30 5 30 10 0 6 -13 10 -30 10 -16
0 -30 -4 -30 -10z"/>
<path d="M925 410 c3 -5 10 -10 16 -10 5 0 9 5 9 10 0 6 -7 10 -16 10 -8 0
-12 -4 -9 -10z"/>
<path d="M432 212 c31 -60 41 -94 45 -145 3 -37 10 -67 16 -67 16 0 1 130 -22
184 -12 26 -31 61 -42 77 -38 54 -37 29 3 -49z"/>
<path d="M837 233 c-33 -76 -47 -128 -47 -180 0 -66 17 -51 22 19 5 53 17 91
65 206 3 6 1 12 -5 12 -5 0 -21 -26 -35 -57z"/>
</g>
</svg>
