<?xml version="1.0" standalone="no"?>
<!DOCTYPE svg PUBLIC "-//W3C//DTD SVG 20010904//EN"
 "http://www.w3.org/TR/2001/REC-SVG-20010904/DTD/svg10.dtd">
<svg version="1.0" xmlns="http://www.w3.org/2000/svg"
 width="128.000000pt" height="128.000000pt" viewBox="0 0 128.000000 128.000000"
 preserveAspectRatio="xMidYMid meet">

<g transform="translate(0.000000,128.000000) scale(0.100000,-0.100000)"
fill="#000000" stroke="none">
<path d="M195 1270 c-4 -6 6 -27 20 -47 22 -28 25 -37 14 -44 -8 -5 -17 -9
-21 -9 -5 0 -8 -7 -8 -16 0 -19 67 -114 80 -114 22 0 20 25 -4 58 l-26 37 25
13 c29 15 25 28 -27 95 -31 38 -42 44 -53 27z"/>
<path d="M475 1266 c-58 -26 -105 -94 -105 -153 0 -14 -15 -55 -32 -92 l-33
-65 -3 -284 c-3 -269 -2 -284 15 -280 17 3 18 24 23 288 4 228 8 290 20 310
14 23 15 16 23 -105 4 -71 12 -146 18 -166 13 -53 62 -114 116 -146 41 -24 59
-28 123 -28 64 0 82 4 122 28 55 32 92 76 113 136 25 71 16 204 -10 160 -4 -5
-9 -38 -12 -72 -7 -78 -43 -147 -96 -184 -36 -25 -49 -28 -117 -28 -68 0 -81
3 -117 28 -44 30 -93 110 -93 150 0 19 12 34 45 58 41 29 45 36 45 73 0 32 6
45 28 62 21 17 24 25 15 35 -9 9 -19 7 -45 -8 -29 -17 -33 -25 -36 -66 -2 -34
-9 -51 -25 -62 -12 -8 -24 -15 -28 -15 -4 0 -10 66 -14 146 -9 167 -1 199 57
234 29 17 51 20 168 20 116 0 139 -3 167 -20 53 -32 66 -68 62 -184 -4 -88 -2
-101 13 -104 13 -3 17 6 20 40 3 43 3 43 18 18 13 -21 16 -102 20 -505 4 -418
7 -480 20 -480 13 0 15 59 15 475 l0 475 -32 66 c-18 37 -33 78 -33 92 0 60
-47 128 -107 153 -44 19 -286 19 -328 0z"/>
<path d="M1020 1227 c-22 -30 -40 -57 -40 -60 0 -4 11 -12 25 -19 l25 -13 -26
-37 c-24 -33 -26 -58 -4 -58 13 0 80 95 80 114 0 9 -3 16 -7 16 -5 0 -14 4
-22 9 -11 7 -8 16 14 44 25 33 27 57 5 57 -5 0 -27 -24 -50 -53z"/>
<path d="M120 1039 c0 -7 11 -27 25 -45 30 -40 31 -44 5 -44 -35 0 -33 -27 6
-79 57 -76 91 -65 39 12 -25 36 -25 37 -5 37 35 0 34 27 -2 77 -33 46 -68 68
-68 42z"/>
<path d="M1095 1003 c-39 -53 -41 -76 -8 -81 l23 -3 -25 -37 c-52 -76 -17 -86
39 -11 39 52 41 79 6 79 -26 0 -25 4 5 44 14 18 25 38 25 44 0 27 -32 9 -65
-35z"/>
<path d="M305 328 c-3 -8 -4 -83 -3 -168 3 -130 5 -155 18 -155 13 0 15 25 15
164 0 123 -3 165 -12 168 -7 3 -15 -2 -18 -9z"/>
<path d="M567 326 c-47 -17 -54 -23 -40 -37 8 -8 21 -8 48 1 22 7 57 10 84 6
86 -11 94 -11 98 0 11 31 -128 53 -190 30z"/>
<path d="M583 219 c-41 -10 -72 -33 -59 -46 3 -3 31 0 61 7 46 11 64 11 110 0
58 -14 76 -10 56 14 -11 13 -98 38 -119 35 -4 -1 -26 -5 -49 -10z"/>
</g>
</svg>
