<?xml version="1.0" standalone="no"?>
<!DOCTYPE svg PUBLIC "-//W3C//DTD SVG 20010904//EN"
 "http://www.w3.org/TR/2001/REC-SVG-20010904/DTD/svg10.dtd">
<svg version="1.0" xmlns="http://www.w3.org/2000/svg"
 width="128.000000pt" height="128.000000pt" viewBox="0 0 128.000000 128.000000"
 preserveAspectRatio="xMidYMid meet">

<g transform="translate(0.000000,128.000000) scale(0.100000,-0.100000)"
fill="#000000" stroke="none">
<path d="M625 1266 c-3 -9 -7 -23 -10 -31 -3 -9 -21 -23 -41 -31 -37 -15 -41
-36 -8 -43 27 -5 52 -29 56 -55 2 -11 10 -21 18 -21 8 0 16 10 18 21 4 26 29
50 57 56 31 5 24 26 -15 46 -21 10 -37 27 -40 41 -7 29 -28 39 -35 17z m31
-77 c10 -17 -13 -36 -27 -22 -12 12 -4 33 11 33 5 0 12 -5 16 -11z"/>
<path d="M198 1070 c-7 -22 -22 -37 -45 -46 -38 -16 -39 -36 -2 -44 14 -3 31
-19 41 -40 20 -39 41 -46 46 -14 4 26 29 50 57 56 27 5 26 32 -1 36 -26 4 -50
29 -55 56 -6 32 -29 30 -41 -4z m36 -59 c3 -5 -1 -14 -8 -20 -16 -13 -32 2
-21 19 8 12 22 13 29 1z"/>
<path d="M600 993 c-30 -11 -69 -57 -76 -87 -3 -16 -18 -48 -33 -70 l-26 -40
0 -395 c0 -345 2 -396 15 -396 13 0 16 53 20 397 3 218 8 400 13 404 4 4 7
-43 7 -105 l0 -113 34 -34 c30 -30 40 -34 86 -34 46 0 56 4 86 34 l34 34 0
113 c0 62 3 109 8 105 4 -4 9 -78 12 -164 4 -131 8 -157 20 -157 12 0 16 22
18 130 3 153 -1 181 -32 228 -13 19 -27 48 -30 65 -14 60 -100 108 -156 85z
m30 -36 c0 -2 -16 -18 -35 -37 -19 -19 -35 -28 -35 -22 0 16 45 62 60 62 5 0
10 -1 10 -3z m71 -23 c11 -13 2 -26 -64 -92 l-77 -77 0 35 c0 29 10 44 57 92
32 32 60 58 64 58 4 0 12 -7 20 -16z m-60 -208 l-81 -81 0 35 c0 30 11 45 78
113 l77 78 3 -32 c3 -29 -6 -41 -77 -113z m18 -102 c-60 -60 -64 -63 -81 -47
-18 16 -15 20 59 95 l78 79 3 -32 c3 -28 -5 -40 -59 -95z m45 -45 c-9 -10 -26
-19 -38 -19 -17 0 -16 4 15 36 26 27 35 32 37 19 2 -9 -4 -25 -14 -36z"/>
<path d="M1047 993 c-4 -3 -7 -14 -7 -23 0 -21 -28 -47 -55 -52 -11 -2 -20
-10 -20 -18 0 -8 9 -16 20 -18 28 -6 53 -30 57 -56 5 -32 26 -25 46 14 10 21
27 37 41 40 37 8 36 28 -2 44 -23 9 -38 24 -45 45 -11 30 -22 38 -35 24z m28
-83 c11 -17 -5 -32 -21 -19 -7 6 -11 15 -8 20 7 12 21 11 29 -1z"/>
<path d="M175 790 c-34 -14 -66 -56 -72 -96 -3 -21 -12 -46 -19 -54 -38 -44
-44 -85 -44 -295 0 -191 1 -206 18 -203 15 3 17 24 22 220 3 119 8 220 13 224
4 4 7 -36 7 -90 0 -141 25 -176 125 -176 35 0 52 6 77 29 32 29 33 32 39 133
3 57 7 101 9 98 3 -3 7 -133 10 -290 4 -244 7 -285 20 -285 13 0 15 38 15 286
l0 286 -27 41 c-16 23 -28 52 -28 64 0 75 -95 137 -165 108z m100 -55 c24 -24
25 -28 25 -181 0 -184 -4 -194 -78 -194 -78 0 -82 8 -82 192 0 155 1 159 25
183 15 16 36 25 55 25 19 0 40 -9 55 -25z"/>
<path d="M204 729 c-10 -17 13 -36 27 -22 12 12 4 33 -11 33 -5 0 -12 -5 -16
-11z"/>
<path d="M164 669 c-10 -17 13 -36 27 -22 12 12 4 33 -11 33 -5 0 -12 -5 -16
-11z"/>
<path d="M244 669 c-10 -17 13 -36 27 -22 12 12 4 33 -11 33 -5 0 -12 -5 -16
-11z"/>
<path d="M164 589 c-10 -17 13 -36 27 -22 12 12 4 33 -11 33 -5 0 -12 -5 -16
-11z"/>
<path d="M244 589 c-10 -17 13 -36 27 -22 12 12 4 33 -11 33 -5 0 -12 -5 -16
-11z"/>
<path d="M164 509 c-10 -17 13 -36 27 -22 12 12 4 33 -11 33 -5 0 -12 -5 -16
-11z"/>
<path d="M244 509 c-10 -17 13 -36 27 -22 12 12 4 33 -11 33 -5 0 -12 -5 -16
-11z"/>
<path d="M164 429 c-10 -17 13 -36 27 -22 12 12 4 33 -11 33 -5 0 -12 -5 -16
-11z"/>
<path d="M244 429 c-10 -17 13 -36 27 -22 12 12 4 33 -11 33 -5 0 -12 -5 -16
-11z"/>
<path d="M1003 701 c-30 -19 -63 -66 -63 -91 0 -6 -12 -29 -27 -52 l-28 -41 0
-256 c0 -221 2 -256 15 -256 13 0 16 37 20 255 3 140 8 257 10 260 2 3 6 -46
9 -108 6 -113 6 -114 39 -143 25 -23 42 -29 77 -29 102 0 125 34 125 186 0 59
3 104 8 100 4 -4 9 -123 12 -264 4 -220 7 -257 20 -257 13 0 15 34 18 230 3
258 1 279 -32 328 -13 19 -27 48 -30 65 -16 73 -110 112 -173 73z m115 -48
c16 -16 22 -28 15 -30 -17 -6 -51 14 -63 37 -16 31 15 26 48 -7z m-76 -14 c11
-18 35 -37 58 -47 47 -20 56 -52 14 -52 -38 0 -81 29 -100 68 -27 57 -2 85 28
31z m12 -120 c22 -10 51 -19 64 -19 18 0 22 -6 22 -31 l0 -32 -51 5 c-74 7
-103 33 -107 94 -3 48 -3 49 14 25 9 -13 35 -32 58 -42z m49 -119 c34 0 37 -2
37 -30 0 -28 -2 -30 -40 -30 -22 0 -58 7 -80 16 -36 14 -40 20 -40 50 l0 33
43 -19 c23 -11 59 -20 80 -20z m-35 -94 c29 -7 50 -15 46 -19 -14 -14 -97 -7
-116 10 -23 21 -23 38 0 28 9 -5 41 -13 70 -19z"/>
<path d="M785 428 c-3 -7 -4 -106 -3 -218 3 -174 5 -205 18 -205 13 0 15 30
15 214 0 163 -3 215 -12 218 -7 3 -15 -1 -18 -9z"/>
<path d="M44 87 c-10 -28 0 -82 16 -82 11 0 15 12 15 44 0 44 -19 68 -31 38z"/>
</g>
</svg>
